# Blender v2.71 (sub 0) OBJ File: 'plane.blend'
# www.blender.org
mtllib plane2.mtl
o Plane_Plane.001
v -7.133801 0.086230 6.835140
v 7.109041 0.086230 6.835140
v -7.133801 0.086230 -7.407702
v 7.109041 0.086230 -7.407702
v -7.133801 0.086230 -6.220798
v -7.133801 0.086230 -5.033895
v -7.133801 0.086230 -3.846991
v -7.133801 0.086230 -2.660088
v -7.133801 0.086230 -1.473184
v -7.133801 0.086230 -0.286281
v -7.133801 0.086230 0.900623
v -7.133801 0.086230 2.087526
v -7.133801 0.086230 3.274429
v -7.133801 0.086230 4.461333
v -7.133801 0.086230 5.648237
v -5.946898 0.086230 6.835140
v -4.759994 0.086230 6.835140
v -3.573090 0.086230 6.835140
v -2.386186 0.086230 6.835140
v -1.199283 0.086230 6.835140
v -0.012379 0.086230 6.835140
v 1.174524 0.086230 6.835140
v 2.361427 0.086230 6.835140
v 3.548331 0.086230 6.835140
v 4.735234 0.086230 6.835140
v 5.922138 0.086230 6.835140
v 7.109041 0.086230 5.648236
v 7.109041 0.086230 4.461332
v 7.109041 0.086230 3.274429
v 7.109041 0.086230 2.087525
v 7.109041 0.086230 0.900622
v 7.109041 0.086230 -0.286282
v 7.109041 0.086230 -1.473185
v 7.109041 0.086230 -2.660088
v 7.109041 0.086230 -3.846992
v 7.109041 0.086230 -5.033895
v 7.109041 0.086230 -6.220799
v 5.922137 0.086230 -7.407702
v 4.735233 0.086230 -7.407702
v 3.548330 0.086230 -7.407702
v 2.361427 0.086230 -7.407702
v 1.174523 0.086230 -7.407702
v -0.012380 0.086230 -7.407702
v -1.199284 0.086230 -7.407702
v -2.386187 0.086230 -7.407702
v -3.573090 0.086230 -7.407702
v -4.759994 0.086230 -7.407702
v -5.946898 0.086230 -7.407702
v -5.946898 0.086230 5.648236
v -5.946898 0.086230 4.461332
v -5.946898 0.086230 3.274429
v -5.946898 0.086230 2.087525
v -5.946898 0.086230 0.900622
v -5.946898 0.086230 -0.286282
v -5.946898 0.086230 -1.473185
v -5.946898 0.086230 -2.660088
v -5.946898 0.086230 -3.846992
v -5.946898 0.086230 -5.033895
v -5.946898 0.086230 -6.220799
v -4.759994 0.086230 5.648236
v -4.759994 0.086230 4.461332
v -4.759994 0.086230 3.274429
v -4.759994 0.086230 2.087525
v -4.759994 0.086230 0.900622
v -4.759994 0.086230 -0.286282
v -4.759994 0.086230 -1.473185
v -4.759994 0.086230 -2.660088
v -4.759994 0.086230 -3.846992
v -4.759994 0.086230 -5.033895
v -4.759994 0.086230 -6.220799
v -3.573090 0.086230 5.648236
v -3.573090 0.086230 4.461332
v -3.573090 0.086230 3.274429
v -3.573090 0.086230 2.087525
v -3.573090 0.086230 0.900622
v -3.573090 0.086230 -0.286282
v -3.573090 0.086230 -1.473185
v -3.573090 0.086230 -2.660088
v -3.573090 0.086230 -3.846992
v -3.573090 0.086230 -5.033895
v -3.573090 0.086230 -6.220799
v -2.386186 0.086230 5.648236
v -2.386186 0.086230 4.461332
v -2.386186 0.086230 3.274429
v -2.386186 0.086230 2.087525
v -2.386186 0.086230 0.900622
v -2.386187 0.086230 -0.286282
v -2.386187 0.086230 -1.473185
v -2.386187 0.086230 -2.660088
v -2.386187 0.086230 -3.846992
v -2.386187 0.086230 -5.033895
v -2.386187 0.086230 -6.220799
v -1.199283 0.086230 5.648236
v -1.199283 0.086230 4.461332
v -1.199283 0.086230 3.274429
v -1.199283 0.086230 2.087525
v -1.199283 0.086230 0.900622
v -1.199283 0.086230 -0.286282
v -1.199283 0.086230 -1.473185
v -1.199284 0.086230 -2.660088
v -1.199284 0.086230 -3.846992
v -1.199284 0.086230 -5.033895
v -1.199284 0.086230 -6.220799
v -0.012379 0.086230 5.648236
v -0.012380 0.086230 4.461332
v -0.012380 0.086230 3.274429
v -0.012380 0.086230 2.087525
v -0.012380 0.086230 0.900622
v -0.012380 0.086230 -0.286282
v -0.012380 0.086230 -1.473185
v -0.012380 0.086230 -2.660088
v -0.012380 0.086230 -3.846992
v -0.012380 0.086230 -5.033895
v -0.012380 0.086230 -6.220799
v 1.174524 0.086230 5.648236
v 1.174524 0.086230 4.461332
v 1.174524 0.086230 3.274429
v 1.174524 0.086230 2.087525
v 1.174523 0.086230 0.900622
v 1.174523 0.086230 -0.286282
v 1.174523 0.086230 -1.473185
v 1.174523 0.086230 -2.660088
v 1.174523 0.086230 -3.846992
v 1.174523 0.086230 -5.033895
v 1.174523 0.086230 -6.220799
v 2.361427 0.086230 5.648236
v 2.361427 0.086230 4.461332
v 2.361427 0.086230 3.274429
v 2.361427 0.086230 2.087525
v 2.361427 0.086230 0.900622
v 2.361427 0.086230 -0.286282
v 2.361427 0.086230 -1.473185
v 2.361427 0.086230 -2.660088
v 2.361427 0.086230 -3.846992
v 2.361427 0.086230 -5.033895
v 2.361427 0.086230 -6.220799
v 3.548331 0.086230 5.648236
v 3.548331 0.086230 4.461332
v 3.548331 0.086230 3.274429
v 3.548331 0.086230 2.087525
v 3.548331 0.086230 0.900622
v 3.548331 0.086230 -0.286282
v 3.548331 0.086230 -1.473185
v 3.548331 0.086230 -2.660088
v 3.548331 0.086230 -3.846992
v 3.548330 0.086230 -5.033895
v 3.548330 0.086230 -6.220799
v 4.735234 0.086230 5.648236
v 4.735234 0.086230 4.461332
v 4.735234 0.086230 3.274429
v 4.735234 0.086230 2.087525
v 4.735234 0.086230 0.900622
v 4.735234 0.086230 -0.286282
v 4.735234 0.086230 -1.473185
v 4.735234 0.086230 -2.660088
v 4.735234 0.086230 -3.846992
v 4.735234 0.086230 -5.033895
v 4.735233 0.086230 -6.220799
v 5.922138 0.086230 5.648236
v 5.922138 0.086230 4.461332
v 5.922138 0.086230 3.274429
v 5.922138 0.086230 2.087525
v 5.922138 0.086230 0.900622
v 5.922138 0.086230 -0.286282
v 5.922138 0.086230 -1.473185
v 5.922138 0.086230 -2.660088
v 5.922138 0.086230 -3.846992
v 5.922138 0.086230 -5.033895
v 5.922138 0.086230 -6.220799
vt 0.999869 0.916557
vt 0.999863 0.999862
vt 0.916559 0.999857
vt 0.000167 0.916578
vt 0.083477 0.916573
vt 0.083481 0.999883
vt 0.166787 0.916568
vt 0.166791 0.999878
vt 0.250097 0.916564
vt 0.250101 0.999874
vt 0.333407 0.916559
vt 0.333411 0.999869
vt 0.416716 0.916555
vt 0.416720 0.999864
vt 0.500025 0.916552
vt 0.500029 0.999860
vt 0.583334 0.916549
vt 0.583336 0.999857
vt 0.666642 0.916547
vt 0.666643 0.999854
vt 0.749949 0.916547
vt 0.749949 0.999853
vt 0.833256 0.916548
vt 0.833254 0.999854
vt 0.916563 0.916551
vt 0.000100 0.000134
vt 0.083416 0.000129
vt 0.083421 0.083445
vt 0.000105 0.083450
vt 0.083427 0.166761
vt 0.000111 0.166766
vt 0.083432 0.250076
vt 0.000117 0.250082
vt 0.083438 0.333391
vt 0.000123 0.333397
vt 0.083443 0.416705
vt 0.000130 0.416712
vt 0.083450 0.500018
vt 0.000137 0.500025
vt 0.083455 0.583330
vt 0.000144 0.583337
vt 0.083461 0.666642
vt 0.000150 0.666648
vt 0.083467 0.749953
vt 0.000156 0.749958
vt 0.083472 0.833263
vt 0.000162 0.833268
vt 0.166733 0.000124
vt 0.166737 0.083440
vt 0.166742 0.166756
vt 0.166747 0.250071
vt 0.166752 0.333386
vt 0.166757 0.416700
vt 0.166762 0.500013
vt 0.166767 0.583325
vt 0.166772 0.666637
vt 0.166777 0.749948
vt 0.166782 0.833258
vt 0.250049 0.000120
vt 0.250053 0.083436
vt 0.250057 0.166751
vt 0.250062 0.250066
vt 0.250066 0.333381
vt 0.250071 0.416695
vt 0.250075 0.500008
vt 0.250079 0.583320
vt 0.250084 0.666632
vt 0.250088 0.749943
vt 0.250092 0.833254
vt 0.333365 0.000116
vt 0.333369 0.083432
vt 0.333373 0.166747
vt 0.333377 0.250062
vt 0.333380 0.333377
vt 0.333384 0.416690
vt 0.333388 0.500004
vt 0.333391 0.583316
vt 0.333395 0.666628
vt 0.333399 0.749939
vt 0.333403 0.833249
vt 0.416681 0.000112
vt 0.416685 0.083428
vt 0.416688 0.166743
vt 0.416691 0.250059
vt 0.416694 0.333373
vt 0.416698 0.416687
vt 0.416701 0.500000
vt 0.416703 0.583313
vt 0.416706 0.666624
vt 0.416710 0.749935
vt 0.416713 0.833246
vt 0.499998 0.000108
vt 0.500001 0.083425
vt 0.500004 0.166740
vt 0.500006 0.250056
vt 0.500009 0.333370
vt 0.500011 0.416684
vt 0.500013 0.499997
vt 0.500016 0.583310
vt 0.500018 0.666622
vt 0.500020 0.749932
vt 0.500023 0.833243
vt 0.583314 0.000105
vt 0.583317 0.083422
vt 0.583319 0.166738
vt 0.583321 0.250053
vt 0.583323 0.333368
vt 0.583325 0.416682
vt 0.583326 0.499996
vt 0.583328 0.583308
vt 0.583329 0.666620
vt 0.583331 0.749931
vt 0.583332 0.833240
vt 0.666631 0.000103
vt 0.666633 0.083420
vt 0.666635 0.166736
vt 0.666636 0.250051
vt 0.666638 0.333367
vt 0.666639 0.416681
vt 0.666639 0.499994
vt 0.666640 0.583307
vt 0.666640 0.666619
vt 0.666641 0.749929
vt 0.666641 0.833239
vt 0.749949 0.000101
vt 0.749950 0.083418
vt 0.749951 0.166735
vt 0.749952 0.250050
vt 0.749952 0.333366
vt 0.749953 0.416680
vt 0.749953 0.499994
vt 0.749952 0.583307
vt 0.749952 0.666619
vt 0.749951 0.749930
vt 0.749950 0.833239
vt 0.833266 0.000100
vt 0.833266 0.083417
vt 0.833267 0.166734
vt 0.833268 0.250050
vt 0.833268 0.333366
vt 0.833267 0.416681
vt 0.833266 0.499995
vt 0.833265 0.583308
vt 0.833263 0.666620
vt 0.833261 0.749931
vt 0.833259 0.833241
vt 0.916583 0.000100
vt 0.916583 0.083417
vt 0.916583 0.166734
vt 0.916583 0.250050
vt 0.916583 0.333366
vt 0.916582 0.416681
vt 0.916581 0.499996
vt 0.916578 0.583310
vt 0.916575 0.666623
vt 0.916571 0.749934
vt 0.916567 0.833244
vt 0.999900 0.000100
vt 0.999900 0.083417
vt 0.999900 0.166734
vt 0.999900 0.250050
vt 0.999899 0.333367
vt 0.999898 0.416683
vt 0.999895 0.499999
vt 0.999892 0.583314
vt 0.999887 0.666627
vt 0.999882 0.749939
vt 0.999876 0.833249
vt 0.000172 0.999888
vn 0.000000 1.000000 0.000000
usemtl None
s off
f 37/1/1 4/2/1 38/3/1
f 5/4/1 59/5/1 48/6/1
f 70/7/1 47/8/1 48/6/1
f 81/9/1 46/10/1 47/8/1
f 92/11/1 45/12/1 46/10/1
f 103/13/1 44/14/1 45/12/1
f 114/15/1 43/16/1 44/14/1
f 125/17/1 42/18/1 43/16/1
f 136/19/1 41/20/1 42/18/1
f 147/21/1 40/22/1 41/20/1
f 158/23/1 39/24/1 40/22/1
f 169/25/1 38/3/1 39/24/1
f 1/26/1 16/27/1 49/28/1
f 15/29/1 49/28/1 50/30/1
f 14/31/1 50/30/1 51/32/1
f 13/33/1 51/32/1 52/34/1
f 12/35/1 52/34/1 53/36/1
f 11/37/1 53/36/1 54/38/1
f 10/39/1 54/38/1 55/40/1
f 9/41/1 55/40/1 56/42/1
f 8/43/1 56/42/1 57/44/1
f 7/45/1 57/44/1 58/46/1
f 6/47/1 58/46/1 59/5/1
f 17/48/1 60/49/1 49/28/1
f 60/49/1 61/50/1 50/30/1
f 61/50/1 62/51/1 51/32/1
f 62/51/1 63/52/1 52/34/1
f 63/52/1 64/53/1 53/36/1
f 64/53/1 65/54/1 54/38/1
f 65/54/1 66/55/1 55/40/1
f 66/55/1 67/56/1 56/42/1
f 67/56/1 68/57/1 57/44/1
f 68/57/1 69/58/1 58/46/1
f 69/58/1 70/7/1 59/5/1
f 18/59/1 71/60/1 60/49/1
f 71/60/1 72/61/1 61/50/1
f 72/61/1 73/62/1 62/51/1
f 73/62/1 74/63/1 63/52/1
f 74/63/1 75/64/1 64/53/1
f 75/64/1 76/65/1 65/54/1
f 76/65/1 77/66/1 66/55/1
f 77/66/1 78/67/1 67/56/1
f 78/67/1 79/68/1 68/57/1
f 79/68/1 80/69/1 69/58/1
f 80/69/1 81/9/1 70/7/1
f 19/70/1 82/71/1 71/60/1
f 82/71/1 83/72/1 72/61/1
f 83/72/1 84/73/1 73/62/1
f 84/73/1 85/74/1 74/63/1
f 85/74/1 86/75/1 75/64/1
f 86/75/1 87/76/1 76/65/1
f 87/76/1 88/77/1 77/66/1
f 88/77/1 89/78/1 78/67/1
f 89/78/1 90/79/1 79/68/1
f 90/79/1 91/80/1 80/69/1
f 91/80/1 92/11/1 81/9/1
f 20/81/1 93/82/1 82/71/1
f 93/82/1 94/83/1 83/72/1
f 94/83/1 95/84/1 84/73/1
f 84/73/1 95/84/1 96/85/1
f 96/85/1 97/86/1 86/75/1
f 97/86/1 98/87/1 87/76/1
f 87/76/1 98/87/1 99/88/1
f 99/88/1 100/89/1 89/78/1
f 100/89/1 101/90/1 90/79/1
f 101/90/1 102/91/1 91/80/1
f 102/91/1 103/13/1 92/11/1
f 21/92/1 104/93/1 93/82/1
f 93/82/1 104/93/1 105/94/1
f 105/94/1 106/95/1 95/84/1
f 106/95/1 107/96/1 96/85/1
f 107/96/1 108/97/1 97/86/1
f 108/97/1 109/98/1 98/87/1
f 109/98/1 110/99/1 99/88/1
f 110/99/1 111/100/1 100/89/1
f 111/100/1 112/101/1 101/90/1
f 112/101/1 113/102/1 102/91/1
f 113/102/1 114/15/1 103/13/1
f 22/103/1 115/104/1 104/93/1
f 115/104/1 116/105/1 105/94/1
f 116/105/1 117/106/1 106/95/1
f 117/106/1 118/107/1 107/96/1
f 118/107/1 119/108/1 108/97/1
f 119/108/1 120/109/1 109/98/1
f 120/109/1 121/110/1 110/99/1
f 121/110/1 122/111/1 111/100/1
f 122/111/1 123/112/1 112/101/1
f 112/101/1 123/112/1 124/113/1
f 124/113/1 125/17/1 114/15/1
f 23/114/1 126/115/1 115/104/1
f 126/115/1 127/116/1 116/105/1
f 127/116/1 128/117/1 117/106/1
f 117/106/1 128/117/1 129/118/1
f 129/118/1 130/119/1 119/108/1
f 130/119/1 131/120/1 120/109/1
f 131/120/1 132/121/1 121/110/1
f 132/121/1 133/122/1 122/111/1
f 133/122/1 134/123/1 123/112/1
f 134/123/1 135/124/1 124/113/1
f 135/124/1 136/19/1 125/17/1
f 24/125/1 137/126/1 126/115/1
f 137/126/1 138/127/1 127/116/1
f 138/127/1 139/128/1 128/117/1
f 139/128/1 140/129/1 129/118/1
f 140/129/1 141/130/1 130/119/1
f 141/130/1 142/131/1 131/120/1
f 142/131/1 143/132/1 132/121/1
f 143/132/1 144/133/1 133/122/1
f 144/133/1 145/134/1 134/123/1
f 145/134/1 146/135/1 135/124/1
f 146/135/1 147/21/1 136/19/1
f 25/136/1 148/137/1 137/126/1
f 148/137/1 149/138/1 138/127/1
f 149/138/1 150/139/1 139/128/1
f 150/139/1 151/140/1 140/129/1
f 151/140/1 152/141/1 141/130/1
f 152/141/1 153/142/1 142/131/1
f 153/142/1 154/143/1 143/132/1
f 154/143/1 155/144/1 144/133/1
f 155/144/1 156/145/1 145/134/1
f 156/145/1 157/146/1 146/135/1
f 157/146/1 158/23/1 147/21/1
f 26/147/1 159/148/1 148/137/1
f 159/148/1 160/149/1 149/138/1
f 160/149/1 161/150/1 150/139/1
f 161/150/1 162/151/1 151/140/1
f 162/151/1 163/152/1 152/141/1
f 163/152/1 164/153/1 153/142/1
f 164/153/1 165/154/1 154/143/1
f 165/154/1 166/155/1 155/144/1
f 166/155/1 167/156/1 156/145/1
f 167/156/1 168/157/1 157/146/1
f 168/157/1 169/25/1 158/23/1
f 2/158/1 27/159/1 159/148/1
f 27/159/1 28/160/1 160/149/1
f 28/160/1 29/161/1 161/150/1
f 29/161/1 30/162/1 162/151/1
f 30/162/1 31/163/1 163/152/1
f 31/163/1 32/164/1 164/153/1
f 32/164/1 33/165/1 165/154/1
f 33/165/1 34/166/1 166/155/1
f 34/166/1 35/167/1 167/156/1
f 35/167/1 36/168/1 168/157/1
f 36/168/1 37/1/1 169/25/1
f 169/25/1 37/1/1 38/3/1
f 3/169/1 5/4/1 48/6/1
f 59/5/1 70/7/1 48/6/1
f 70/7/1 81/9/1 47/8/1
f 81/9/1 92/11/1 46/10/1
f 92/11/1 103/13/1 45/12/1
f 103/13/1 114/15/1 44/14/1
f 114/15/1 125/17/1 43/16/1
f 125/17/1 136/19/1 42/18/1
f 136/19/1 147/21/1 41/20/1
f 147/21/1 158/23/1 40/22/1
f 158/23/1 169/25/1 39/24/1
f 15/29/1 1/26/1 49/28/1
f 14/31/1 15/29/1 50/30/1
f 13/33/1 14/31/1 51/32/1
f 12/35/1 13/33/1 52/34/1
f 11/37/1 12/35/1 53/36/1
f 10/39/1 11/37/1 54/38/1
f 9/41/1 10/39/1 55/40/1
f 8/43/1 9/41/1 56/42/1
f 7/45/1 8/43/1 57/44/1
f 6/47/1 7/45/1 58/46/1
f 5/4/1 6/47/1 59/5/1
f 16/27/1 17/48/1 49/28/1
f 49/28/1 60/49/1 50/30/1
f 50/30/1 61/50/1 51/32/1
f 51/32/1 62/51/1 52/34/1
f 52/34/1 63/52/1 53/36/1
f 53/36/1 64/53/1 54/38/1
f 54/38/1 65/54/1 55/40/1
f 55/40/1 66/55/1 56/42/1
f 56/42/1 67/56/1 57/44/1
f 57/44/1 68/57/1 58/46/1
f 58/46/1 69/58/1 59/5/1
f 17/48/1 18/59/1 60/49/1
f 60/49/1 71/60/1 61/50/1
f 61/50/1 72/61/1 62/51/1
f 62/51/1 73/62/1 63/52/1
f 63/52/1 74/63/1 64/53/1
f 64/53/1 75/64/1 65/54/1
f 65/54/1 76/65/1 66/55/1
f 66/55/1 77/66/1 67/56/1
f 67/56/1 78/67/1 68/57/1
f 68/57/1 79/68/1 69/58/1
f 69/58/1 80/69/1 70/7/1
f 18/59/1 19/70/1 71/60/1
f 71/60/1 82/71/1 72/61/1
f 72/61/1 83/72/1 73/62/1
f 73/62/1 84/73/1 74/63/1
f 74/63/1 85/74/1 75/64/1
f 75/64/1 86/75/1 76/65/1
f 76/65/1 87/76/1 77/66/1
f 77/66/1 88/77/1 78/67/1
f 78/67/1 89/78/1 79/68/1
f 79/68/1 90/79/1 80/69/1
f 80/69/1 91/80/1 81/9/1
f 19/70/1 20/81/1 82/71/1
f 82/71/1 93/82/1 83/72/1
f 83/72/1 94/83/1 84/73/1
f 85/74/1 84/73/1 96/85/1
f 85/74/1 96/85/1 86/75/1
f 86/75/1 97/86/1 87/76/1
f 88/77/1 87/76/1 99/88/1
f 88/77/1 99/88/1 89/78/1
f 89/78/1 100/89/1 90/79/1
f 90/79/1 101/90/1 91/80/1
f 91/80/1 102/91/1 92/11/1
f 20/81/1 21/92/1 93/82/1
f 94/83/1 93/82/1 105/94/1
f 94/83/1 105/94/1 95/84/1
f 95/84/1 106/95/1 96/85/1
f 96/85/1 107/96/1 97/86/1
f 97/86/1 108/97/1 98/87/1
f 98/87/1 109/98/1 99/88/1
f 99/88/1 110/99/1 100/89/1
f 100/89/1 111/100/1 101/90/1
f 101/90/1 112/101/1 102/91/1
f 102/91/1 113/102/1 103/13/1
f 21/92/1 22/103/1 104/93/1
f 104/93/1 115/104/1 105/94/1
f 105/94/1 116/105/1 106/95/1
f 106/95/1 117/106/1 107/96/1
f 107/96/1 118/107/1 108/97/1
f 108/97/1 119/108/1 109/98/1
f 109/98/1 120/109/1 110/99/1
f 110/99/1 121/110/1 111/100/1
f 111/100/1 122/111/1 112/101/1
f 113/102/1 112/101/1 124/113/1
f 113/102/1 124/113/1 114/15/1
f 22/103/1 23/114/1 115/104/1
f 115/104/1 126/115/1 116/105/1
f 116/105/1 127/116/1 117/106/1
f 118/107/1 117/106/1 129/118/1
f 118/107/1 129/118/1 119/108/1
f 119/108/1 130/119/1 120/109/1
f 120/109/1 131/120/1 121/110/1
f 121/110/1 132/121/1 122/111/1
f 122/111/1 133/122/1 123/112/1
f 123/112/1 134/123/1 124/113/1
f 124/113/1 135/124/1 125/17/1
f 23/114/1 24/125/1 126/115/1
f 126/115/1 137/126/1 127/116/1
f 127/116/1 138/127/1 128/117/1
f 128/117/1 139/128/1 129/118/1
f 129/118/1 140/129/1 130/119/1
f 130/119/1 141/130/1 131/120/1
f 131/120/1 142/131/1 132/121/1
f 132/121/1 143/132/1 133/122/1
f 133/122/1 144/133/1 134/123/1
f 134/123/1 145/134/1 135/124/1
f 135/124/1 146/135/1 136/19/1
f 24/125/1 25/136/1 137/126/1
f 137/126/1 148/137/1 138/127/1
f 138/127/1 149/138/1 139/128/1
f 139/128/1 150/139/1 140/129/1
f 140/129/1 151/140/1 141/130/1
f 141/130/1 152/141/1 142/131/1
f 142/131/1 153/142/1 143/132/1
f 143/132/1 154/143/1 144/133/1
f 144/133/1 155/144/1 145/134/1
f 145/134/1 156/145/1 146/135/1
f 146/135/1 157/146/1 147/21/1
f 25/136/1 26/147/1 148/137/1
f 148/137/1 159/148/1 149/138/1
f 149/138/1 160/149/1 150/139/1
f 150/139/1 161/150/1 151/140/1
f 151/140/1 162/151/1 152/141/1
f 152/141/1 163/152/1 153/142/1
f 153/142/1 164/153/1 154/143/1
f 154/143/1 165/154/1 155/144/1
f 155/144/1 166/155/1 156/145/1
f 156/145/1 167/156/1 157/146/1
f 157/146/1 168/157/1 158/23/1
f 26/147/1 2/158/1 159/148/1
f 159/148/1 27/159/1 160/149/1
f 160/149/1 28/160/1 161/150/1
f 161/150/1 29/161/1 162/151/1
f 162/151/1 30/162/1 163/152/1
f 163/152/1 31/163/1 164/153/1
f 164/153/1 32/164/1 165/154/1
f 165/154/1 33/165/1 166/155/1
f 166/155/1 34/166/1 167/156/1
f 167/156/1 35/167/1 168/157/1
f 168/157/1 36/168/1 169/25/1
